<svg width="73" height="14" viewBox="0 0 73 14" fill="none" xmlns="http://www.w3.org/2000/svg">
<path d="M6.5 0L7.95934 4.83688H12.6819L8.86126 7.82624L10.3206 12.6631L6.5 9.67376L2.6794 12.6631L4.13874 7.82624L0.318133 4.83688H5.04066L6.5 0Z" fill="black"/>
<path d="M36.5 0L37.9593 4.83688H42.6819L38.8613 7.82624L40.3206 12.6631L36.5 9.67376L32.6794 12.6631L34.1387 7.82624L30.3181 4.83688H35.0407L36.5 0Z" fill="black"/>
<path d="M51.5 0L52.9593 4.83688H57.6819L53.8613 7.82624L55.3206 12.6631L51.5 9.67376L47.6794 12.6631L49.1387 7.82624L45.3181 4.83688H50.0407L51.5 0Z" fill="black"/>
<path d="M66.5 0.8655L67.72 4.90909L67.7736 5.08688H67.9593H71.9567L68.7072 7.62934L68.5725 7.73473L68.6219 7.89845L69.8534 11.9801L66.6541 9.47687L66.5 9.35633L66.3459 9.47687L63.1466 11.9801L64.3781 7.89845L64.4275 7.73473L64.2928 7.62934L61.0433 5.08688H65.0407H65.2264L65.28 4.90909L66.5 0.8655Z" fill="white" stroke="black" stroke-width="0.5"/>
<path d="M21.5 0L22.9593 4.83688H27.6819L23.8613 7.82624L25.3206 12.6631L21.5 9.67376L17.6794 12.6631L19.1387 7.82624L15.3181 4.83688H20.0407L21.5 0Z" fill="black"/>
</svg>
